<svg width="34" height="34" viewBox="0 0 34 34" fill="none" xmlns="http://www.w3.org/2000/svg">
<g id="spotify 1" clip-path="url(#clip0_4_22)">
<circle id="Ellipse 6" cx="17" cy="17" r="14" fill="white"/>
<path id="Vector" d="M17 0C7.61115 0 0 7.61115 0 17C0 26.3889 7.61115 34 17 34C26.3889 34 34 26.3889 34 17C34 7.61115 26.3889 0 17 0ZM24.3986 24.6716C24.1825 25.0415 23.7934 25.2477 23.3939 25.2478C23.1946 25.2478 22.9928 25.1965 22.8084 25.0888C19.7535 23.3035 16.2243 23.0165 13.801 23.0902C11.1167 23.1719 9.1482 23.7018 9.12864 23.7072C8.50986 23.8762 7.87041 23.5121 7.70067 22.8934C7.53101 22.2748 7.89386 21.6357 8.51232 21.4653C8.60105 21.4409 10.7194 20.8656 13.665 20.7684C15.4001 20.7112 17.0705 20.8321 18.6291 21.1278C20.6032 21.5022 22.404 22.1596 23.9815 23.0815C24.5359 23.4054 24.7225 24.1174 24.3986 24.6716ZM26.5599 20.1829C26.3039 20.6211 25.8431 20.8653 25.3697 20.8654C25.1337 20.8654 24.8947 20.8047 24.6762 20.6771C21.0576 18.5623 16.8771 18.2225 14.0068 18.3097C10.8271 18.4065 8.49531 19.0342 8.47217 19.0405C7.73939 19.2405 6.98179 18.8095 6.78073 18.0766C6.57974 17.3438 7.00962 16.5869 7.74217 16.385C7.84727 16.3561 10.3564 15.6745 13.8457 15.5595C15.9011 15.4917 17.8796 15.6349 19.7258 15.9851C22.0642 16.4288 24.1972 17.2073 26.0657 18.2993C26.7225 18.683 26.9436 19.5264 26.5599 20.1829ZM27.8885 16.1016C27.599 16.1016 27.3058 16.0272 27.0378 15.8706C18.4349 10.8429 7.27532 13.8318 7.16362 13.8627C6.26419 14.1105 5.33439 13.5823 5.08666 12.6829C4.83885 11.7836 5.36707 10.8537 6.26642 10.606C6.39529 10.5704 9.47305 9.73446 13.753 9.59334C16.2743 9.51034 18.7011 9.68588 20.9656 10.1154C23.8338 10.6596 26.4503 11.6146 28.7422 12.954C29.5476 13.4247 29.819 14.4591 29.3483 15.2645C29.0343 15.802 28.4691 16.1016 27.8885 16.1016Z" fill="#00D95F"/>
</g>
<defs>
<clipPath id="clip0_4_22">
<rect width="34" height="34" fill="white"/>
</clipPath>
</defs>
</svg>
